<svg xmlns="http://www.w3.org/2000/svg" xmlns:xlink="http://www.w3.org/1999/xlink" version="1.1" width="1000" height="1000" viewBox="0 0 1000 1000" xml:space="preserve">
<desc>Created with Fabric.js 3.5.0</desc>
<defs>
</defs>
<rect x="0" y="0" width="100%" height="100%" fill="#ffffff"/>
<g transform="matrix(9.744 0 0 9.744 486.8377 486.8377)" id="698169">
<g style="" vector-effect="non-scaling-stroke">
		<g transform="matrix(1 0 0 1 1 1)" id="Layer_1">
<path style="stroke: none; stroke-width: 1; stroke-dasharray: none; stroke-linecap: butt; stroke-dashoffset: 0; stroke-linejoin: miter; stroke-miterlimit: 4; is-custom-font: none; font-file-url: none; fill: rgb(26,27,27); fill-opacity: 0; fill-rule: nonzero; opacity: 1;" transform=" translate(-49, -49)" d="M 66 97 C 44.000004 97 22.500008 97 1.000009 97 C 1.000006 65.000008 1.000006 33.000019 1.000003 1.000021 C 32.999985 1.000014 64.999969 1.000014 96.999969 1.000007 C 96.999977 32.999981 96.999977 64.999962 96.999985 96.999969 C 86.833336 97 76.666664 97 66 97 M 28.382702 39.039345 C 28.257467 39.360485 28.132233 39.681622 27.800961 40.235882 C 27.800961 40.235882 27.8002 40.547005 27.228254 41.046539 C 23.218706 48.732971 23.422346 56.776375 25.132063 65.636452 C 25.215567 66.083565 25.29907 66.53067 25.20561 67.866615 C 25.102484 70.588387 24.999357 73.310165 24.734392 76.258018 C 24.734392 76.258018 24.809662 76.525673 24.244665 77.021347 C 22.182777 82.781395 20.12089 88.541443 18.059002 94.301491 C 18.385405 94.600868 18.711809 94.900238 19.038212 95.199615 C 20.710644 94.480698 22.383076 93.76178 24.010609 92.998756 C 24.010609 92.998756 24.017405 93.061317 24.704842 93.09491 C 25.311707 92.809441 25.918571 92.523972 26.781668 92.333122 C 26.781668 92.333122 26.997528 92.165756 27.789932 92.129616 C 32.350815 90.480415 36.911697 88.831215 41.736691 87.27211 C 41.736691 87.27211 41.969749 87.118637 42.773655 87.13324 C 46.857826 86.124443 50.941994 85.115654 55.237759 84.285774 C 55.237759 84.285774 55.504509 84.210747 56.004436 84.700066 C 56.677113 84.834343 57.349789 84.968613 58.264133 85.261131 C 58.264133 85.261131 58.543556 85.187897 59.060631 85.73204 C 60.711056 86.178833 62.361477 86.625626 64.284035 87.228653 C 64.284035 87.228653 64.593895 87.179115 65.083824 87.739159 C 66.728539 88.19088 68.373245 88.642593 70.273293 89.251472 C 70.273293 89.251472 70.565948 89.186287 71.044914 89.687515 C 71.704254 89.848961 72.363594 90.010406 73.231682 90.336349 C 73.231682 90.336349 73.47599 90.231743 73.973511 90.715973 C 74.641098 90.839127 75.308693 90.96228 75.985558 91.009476 C 75.985558 91.009476 75.928268 91.060188 76.411819 91.596893 C 79.274353 92.514786 82.136894 93.432678 85.714897 94.579979 C 85.714897 85.996719 85.838875 78.543808 85.597595 71.102737 C 85.555489 69.804008 84.251999 67.991386 83.048096 67.400955 C 80.563469 66.182426 77.753189 65.627937 75.06028 64.901215 C 75.06028 64.901215 75.147141 64.847176 74.776085 64.336967 C 74.177292 64.178581 73.578506 64.020187 72.772575 63.691521 C 72.772575 63.691521 72.516769 63.771912 71.994186 63.231651 C 66.813942 61.069019 67.94371 57.013485 69.869774 53.010372 C 74.797691 53.010372 79.725616 53.010372 85.357185 53.010372 C 84.33786 45.662766 82.365768 39.623726 77.182602 34.478897 C 77.182602 34.478897 77.202728 34.008961 77.756424 33.665257 C 81.428459 29.001579 85.100502 24.337902 88.854073 19.570675 C 87.191902 18.233505 85.960342 17.124767 84.614799 16.178024 C 64.988197 2.36843 42.735367 0.837803 23.625462 16.977402 C 7.20272 30.847513 3.770737 54.915783 11.028108 77.055 C 13.288415 76.252327 15.539315 75.452995 17.935013 74.602234 C 12.525033 52.026344 13.375093 31.521694 35.524761 18.233696 C 48.863228 10.231703 66.430191 11.962451 77.419601 21.388147 C 75.616432 23.957388 73.814301 26.525156 71.431587 29.078119 C 71.048019 29.059683 70.664444 29.041246 69.779869 28.491264 C 55.232735 20.179935 38.121311 23.745369 29.390142 37.160194 C 29.191252 37.742905 28.992363 38.325615 28.891033 38.923565 C 28.891033 38.923565 28.870991 38.826878 28.382702 39.039345 z" stroke-linecap="round"/>
</g>
		<g transform="matrix(1 0 0 1 4.479 10.6192)" id="Layer_1">
<path style="stroke: none; stroke-width: 1; stroke-dasharray: none; stroke-linecap: butt; stroke-dashoffset: 0; stroke-linejoin: miter; stroke-miterlimit: 4; is-custom-font: none; font-file-url: none; fill: rgb(10,98,114); fill-rule: nonzero; opacity: 1;" transform=" translate(-52.479, -58.6191)" d="M 24.809662 76.525673 C 24.809662 76.525673 24.734392 76.258018 25.112106 75.912605 C 26.38871 72.692383 28.729528 69.799576 25.382572 66.977783 C 25.29907 66.53067 25.215567 66.083565 25.411053 64.969391 C 26.393427 56.383888 27.096813 48.465446 27.8002 40.547005 C 27.8002 40.547005 27.800961 40.235882 28.131727 39.994881 C 28.59866 39.444881 28.734825 39.13588 28.870991 38.826878 C 28.870991 38.826878 28.891033 38.923565 29.140341 38.774654 C 29.561863 38.017014 29.734077 37.408279 29.906292 36.799549 C 38.121311 23.745369 55.232735 20.179935 69.940102 29.111328 C 68.93708 31.562618 67.773819 33.393845 66.274986 35.110985 C 47.259827 26.155045 30.543295 37.38448 32.090019 57.972908 C 32.703598 66.140221 34.79858 74.257317 30.203241 82.948051 C 33.522076 81.983307 35.676971 81.667389 37.546322 80.76194 C 47.873318 75.759903 58.08115 75.433197 68.47036 80.690758 C 71.123062 82.03318 74.250565 82.437355 77.244774 83.296967 C 78.628372 74.187233 78.518188 73.991005 71.209282 71.113617 C 70.132256 70.689606 69.077522 70.208977 68.00631 69.334381 C 68.040291 66.935753 68.080421 64.957298 68.458557 63.148911 C 70.036629 63.469959 71.276695 63.620934 72.516769 63.771912 C 72.516769 63.771912 72.772575 63.691521 73.045685 64.056129 C 73.928246 64.562881 74.537697 64.705025 75.147141 64.847176 C 75.147141 64.847176 75.06028 64.901215 75.22966 65.167236 C 83.725548 67.549217 85.136932 73.512985 84.028885 80.900154 C 83.931824 81.547203 84.016914 82.22155 84.017189 82.883217 C 84.020721 91.429138 84.020706 91.429138 75.928268 91.060188 C 75.928268 91.060188 75.985558 91.009476 75.768364 90.760429 C 74.859444 90.418175 74.167717 90.324959 73.47599 90.231743 C 73.47599 90.231743 73.231682 90.336349 72.927376 89.954071 C 71.937363 89.443291 71.251656 89.314789 70.565948 89.186279 C 70.565948 89.186287 70.273293 89.251472 69.932419 88.870346 C 67.925667 88.052513 66.259781 87.615814 64.593895 87.179115 C 64.593895 87.179115 64.284035 87.228653 63.930908 86.850754 C 61.899708 86.044525 60.22163 85.616211 58.543556 85.187897 C 58.543556 85.187897 58.264133 85.261131 57.92437 84.896561 C 56.891243 84.424904 56.197876 84.317825 55.504509 84.210739 C 55.504509 84.210747 55.237759 84.285774 54.895706 83.895996 C 50.359016 84.710358 46.164383 85.914497 41.969749 87.118637 C 41.969749 87.118637 41.736691 87.27211 41.170403 87.175697 C 36.068588 88.77478 31.53306 90.470268 26.997528 92.165756 C 26.997528 92.165756 26.781668 92.333122 26.293484 92.233643 C 25.209333 92.443222 24.613369 92.752266 24.017405 93.061317 C 24.017405 93.061317 24.010609 92.998756 23.653952 92.993484 C 22.361044 92.854095 21.424795 92.719978 20.601631 92.602066 C 22.046097 87.083618 23.427879 81.804642 24.809662 76.525673 z" stroke-linecap="round"/>
</g>
		<g transform="matrix(1 0 0 1 0.1361 -6.7999)" id="Layer_1">
<path style="stroke: none; stroke-width: 1; stroke-dasharray: none; stroke-linecap: butt; stroke-dashoffset: 0; stroke-linejoin: miter; stroke-miterlimit: 4; is-custom-font: none; font-file-url: none; fill: rgb(117,10,206); fill-rule: nonzero; opacity: 1;" transform=" translate(-48.1361, -41.2)" d="M 72.012169 29.092926 C 73.814301 26.525156 75.616432 23.957388 77.419601 21.388147 C 66.430191 11.962451 48.863228 10.231703 35.524761 18.233696 C 13.375093 31.521694 12.525033 52.026344 17.935013 74.602234 C 15.539315 75.452995 13.288415 76.252327 11.028108 77.055 C 3.770737 54.915783 7.20272 30.847513 23.625462 16.977402 C 42.735367 0.837803 64.988197 2.36843 84.614799 16.178024 C 85.960342 17.124767 87.191902 18.233505 88.854073 19.570675 C 85.100502 24.337902 81.428459 29.001579 77.169655 33.710258 C 75.059311 32.201145 73.535744 30.647036 72.012169 29.092926 z" stroke-linecap="round"/>
</g>
		<g transform="matrix(1 0 0 1 28.6321 -4.0203)" id="Layer_1">
<path style="stroke: none; stroke-width: 1; stroke-dasharray: none; stroke-linecap: butt; stroke-dashoffset: 0; stroke-linejoin: miter; stroke-miterlimit: 4; is-custom-font: none; font-file-url: none; fill: rgb(9,111,131); fill-rule: nonzero; opacity: 1;" transform=" translate(-76.6321, -43.9797)" d="M 77.19487 34.949104 C 82.365768 39.623726 84.33786 45.662766 85.357185 53.010372 C 79.725616 53.010372 74.797691 53.010372 69.129303 52.969444 C 68.208786 52.909611 68.028748 52.890705 67.906982 52.452885 C 67.981285 49.770058 67.997322 47.506153 68.414703 45.17506 C 70.633362 45.107876 72.450684 45.107876 74.900795 45.107876 C 73.834915 42.98233 73.208633 41.733429 72.758621 40.162109 C 74.354881 38.209499 75.774879 36.579304 77.19487 34.949104 z" stroke-linecap="round"/>
</g>
		<g transform="matrix(1 0 0 1 32.4924 31.8484)" id="Layer_1">
<path style="stroke: none; stroke-width: 1; stroke-dasharray: none; stroke-linecap: butt; stroke-dashoffset: 0; stroke-linejoin: miter; stroke-miterlimit: 4; is-custom-font: none; font-file-url: none; fill: rgb(54,189,216); fill-rule: nonzero; opacity: 1;" transform=" translate(-80.4923, -79.8484)" d="M 76.170044 91.328537 C 84.020706 91.429138 84.020721 91.429138 84.017189 82.883217 C 84.016914 82.22155 83.931824 81.547203 84.028885 80.900154 C 85.136932 73.512985 83.725548 67.549217 75.237953 65.116768 C 77.753189 65.627937 80.563469 66.182426 83.048096 67.400955 C 84.251999 67.991386 85.555489 69.804008 85.597595 71.102737 C 85.838875 78.543808 85.714897 85.996719 85.714897 94.579979 C 82.136894 93.432678 79.274353 92.514786 76.170044 91.328537 z" stroke-linecap="round"/>
</g>
		<g transform="matrix(1 0 0 1 18.2515 8.9292)" id="Layer_1">
<path style="stroke: none; stroke-width: 1; stroke-dasharray: none; stroke-linecap: butt; stroke-dashoffset: 0; stroke-linejoin: miter; stroke-miterlimit: 4; is-custom-font: none; font-file-url: none; fill: rgb(54,189,216); fill-rule: nonzero; opacity: 1;" transform=" translate(-66.2516, -56.9292)" d="M 67.848709 52.871803 C 68.028748 52.890705 68.208786 52.909611 68.657188 52.965424 C 67.94371 57.013485 66.813942 61.069019 72.255478 63.501781 C 71.276695 63.620934 70.036629 63.469959 68.344658 62.809464 C 65.859894 61.261761 63.82703 60.223579 61.608406 59.09053 C 61.095474 61.546558 60.741238 63.242725 60.255486 64.493347 C 60.217922 59.056526 60.311871 54.065258 60.610691 49.365139 C 61.239761 54.928066 65.139587 52.597748 67.848709 52.871803 z" stroke-linecap="round"/>
</g>
		<g transform="matrix(1 0 0 1 23.8997 -13.4695)" id="Layer_1">
<path style="stroke: none; stroke-width: 1; stroke-dasharray: none; stroke-linecap: butt; stroke-dashoffset: 0; stroke-linejoin: miter; stroke-miterlimit: 4; is-custom-font: none; font-file-url: none; fill: rgb(102,66,195); fill-rule: nonzero; opacity: 1;" transform=" translate(-71.8997, -34.5306)" d="M 77.188736 34.714001 C 75.774879 36.579304 74.354881 38.209499 72.487915 39.988247 C 70.230827 38.499554 68.420692 36.862312 66.610565 35.225071 C 67.773819 33.393845 68.93708 31.562618 70.190605 29.377102 C 70.664444 29.041246 71.048019 29.059683 71.721878 29.085522 C 73.535744 30.647036 75.059311 32.201145 76.892807 33.882111 C 77.202728 34.008961 77.182602 34.478897 77.188736 34.714001 z" stroke-linecap="round"/>
</g>
		<g transform="matrix(1 0 0 1 -22.214 4.7123)" id="Layer_1">
<path style="stroke: none; stroke-width: 1; stroke-dasharray: none; stroke-linecap: butt; stroke-dashoffset: 0; stroke-linejoin: miter; stroke-miterlimit: 4; is-custom-font: none; font-file-url: none; fill: rgb(54,189,216); fill-rule: nonzero; opacity: 1;" transform=" translate(-25.786, -52.7123)" d="M 27.514227 40.796772 C 27.096813 48.465446 26.393427 56.383888 25.446371 64.627853 C 23.422346 56.776375 23.218706 48.732971 27.514227 40.796772 z" stroke-linecap="round"/>
</g>
		<g transform="matrix(1 0 0 1 -26.7069 37.9866)" id="Layer_1">
<path style="stroke: none; stroke-width: 1; stroke-dasharray: none; stroke-linecap: butt; stroke-dashoffset: 0; stroke-linejoin: miter; stroke-miterlimit: 4; is-custom-font: none; font-file-url: none; fill: rgb(54,189,216); fill-rule: nonzero; opacity: 1;" transform=" translate(-21.2931, -85.9866)" d="M 24.527164 76.773514 C 23.427879 81.804642 22.046097 87.083618 20.601631 92.602066 C 21.424795 92.719978 22.361044 92.854095 23.676401 93.015533 C 22.383076 93.76178 20.710644 94.480698 19.038212 95.199615 C 18.711809 94.900238 18.385405 94.600868 18.059002 94.301491 C 20.12089 88.541443 22.182777 82.781395 24.527164 76.773514 z" stroke-linecap="round"/>
</g>
		<g transform="matrix(1 0 0 1 -13.784 41.6392)" id="Layer_1">
<path style="stroke: none; stroke-width: 1; stroke-dasharray: none; stroke-linecap: butt; stroke-dashoffset: 0; stroke-linejoin: miter; stroke-miterlimit: 4; is-custom-font: none; font-file-url: none; fill: rgb(54,189,216); fill-rule: nonzero; opacity: 1;" transform=" translate(-34.216, -89.6392)" d="M 27.39373 92.14769 C 31.53306 90.470268 36.068588 88.77478 41.038353 87.130653 C 36.911697 88.831215 32.350815 90.480415 27.39373 92.14769 z" stroke-linecap="round"/>
</g>
		<g transform="matrix(1 0 0 1 0.5808 37.4662)" id="Layer_1">
<path style="stroke: none; stroke-width: 1; stroke-dasharray: none; stroke-linecap: butt; stroke-dashoffset: 0; stroke-linejoin: miter; stroke-miterlimit: 4; is-custom-font: none; font-file-url: none; fill: rgb(54,189,216); fill-rule: nonzero; opacity: 1;" transform=" translate(-48.5808, -85.4662)" d="M 42.371704 87.125931 C 46.164383 85.914497 50.359016 84.710358 54.789909 83.806534 C 50.941994 85.115654 46.857826 86.124443 42.371704 87.125931 z" stroke-linecap="round"/>
</g>
		<g transform="matrix(1 0 0 1 -21.911 23.6109)" id="Layer_1">
<path style="stroke: none; stroke-width: 1; stroke-dasharray: none; stroke-linecap: butt; stroke-dashoffset: 0; stroke-linejoin: miter; stroke-miterlimit: 4; is-custom-font: none; font-file-url: none; fill: rgb(54,189,216); fill-rule: nonzero; opacity: 1;" transform=" translate(-26.0889, -71.6109)" d="M 25.29409 67.422195 C 28.729528 69.799576 26.38871 72.692383 25.193027 75.799561 C 24.999357 73.310165 25.102484 70.588387 25.29409 67.422195 z" stroke-linecap="round"/>
</g>
		<g transform="matrix(1 0 0 1 19.3218 40.1254)" id="Layer_1">
<path style="stroke: none; stroke-width: 1; stroke-dasharray: none; stroke-linecap: butt; stroke-dashoffset: 0; stroke-linejoin: miter; stroke-miterlimit: 4; is-custom-font: none; font-file-url: none; fill: rgb(54,189,216); fill-rule: nonzero; opacity: 1;" transform=" translate(-67.3218, -88.1255)" d="M 64.83886 87.459137 C 66.259781 87.615814 67.925667 88.052513 69.804756 88.791763 C 68.373245 88.642593 66.728539 88.19088 64.83886 87.459137 z" stroke-linecap="round"/>
</g>
		<g transform="matrix(1 0 0 1 13.2985 38.1163)" id="Layer_1">
<path style="stroke: none; stroke-width: 1; stroke-dasharray: none; stroke-linecap: butt; stroke-dashoffset: 0; stroke-linejoin: miter; stroke-miterlimit: 4; is-custom-font: none; font-file-url: none; fill: rgb(54,189,216); fill-rule: nonzero; opacity: 1;" transform=" translate(-61.2985, -86.1163)" d="M 58.802094 85.459969 C 60.22163 85.616211 61.899708 86.044525 63.794842 86.772629 C 62.361477 86.625626 60.711056 86.178833 58.802094 85.459969 z" stroke-linecap="round"/>
</g>
		<g transform="matrix(1 0 0 1 -22.7368 44.6322)" id="Layer_1">
<path style="stroke: none; stroke-width: 1; stroke-dasharray: none; stroke-linecap: butt; stroke-dashoffset: 0; stroke-linejoin: miter; stroke-miterlimit: 4; is-custom-font: none; font-file-url: none; fill: rgb(54,189,216); fill-rule: nonzero; opacity: 1;" transform=" translate(-25.2632, -92.6322)" d="M 24.361122 93.07811 C 24.613369 92.752266 25.209333 92.443222 26.165367 92.18634 C 25.918571 92.523972 25.311707 92.809441 24.361122 93.07811 z" stroke-linecap="round"/>
</g>
		<g transform="matrix(1 0 0 1 26.7442 42.638)" id="Layer_1">
<path style="stroke: none; stroke-width: 1; stroke-dasharray: none; stroke-linecap: butt; stroke-dashoffset: 0; stroke-linejoin: miter; stroke-miterlimit: 4; is-custom-font: none; font-file-url: none; fill: rgb(54,189,216); fill-rule: nonzero; opacity: 1;" transform=" translate(-74.7442, -90.638)" d="M 73.724747 90.473862 C 74.167717 90.324959 74.859444 90.418175 75.763725 90.798401 C 75.308693 90.96228 74.641098 90.839127 73.724747 90.473862 z" stroke-linecap="round"/>
</g>
		<g transform="matrix(1 0 0 1 23.8142 41.6567)" id="Layer_1">
<path style="stroke: none; stroke-width: 1; stroke-dasharray: none; stroke-linecap: butt; stroke-dashoffset: 0; stroke-linejoin: miter; stroke-miterlimit: 4; is-custom-font: none; font-file-url: none; fill: rgb(54,189,216); fill-rule: nonzero; opacity: 1;" transform=" translate(-71.8142, -89.6567)" d="M 70.805435 89.436897 C 71.251656 89.314789 71.937363 89.443291 72.822998 89.871826 C 72.363594 90.010406 71.704254 89.848961 70.805435 89.436897 z" stroke-linecap="round"/>
</g>
		<g transform="matrix(1 0 0 1 8.779 36.6383)" id="Layer_1">
<path style="stroke: none; stroke-width: 1; stroke-dasharray: none; stroke-linecap: butt; stroke-dashoffset: 0; stroke-linejoin: miter; stroke-miterlimit: 4; is-custom-font: none; font-file-url: none; fill: rgb(54,189,216); fill-rule: nonzero; opacity: 1;" transform=" translate(-56.779, -84.6383)" d="M 55.754471 84.455399 C 56.197876 84.317825 56.891243 84.424904 57.803535 84.817436 C 57.349789 84.968613 56.677113 84.834343 55.754471 84.455399 z" stroke-linecap="round"/>
</g>
		<g transform="matrix(1 0 0 1 26.0555 16.3655)" id="Layer_1">
<path style="stroke: none; stroke-width: 1; stroke-dasharray: none; stroke-linecap: butt; stroke-dashoffset: 0; stroke-linejoin: miter; stroke-miterlimit: 4; is-custom-font: none; font-file-url: none; fill: rgb(54,189,216); fill-rule: nonzero; opacity: 1;" transform=" translate(-74.0554, -64.3655)" d="M 74.961609 64.592072 C 74.537697 64.705025 73.928246 64.562881 73.149261 64.141266 C 73.578506 64.020187 74.177292 64.178581 74.961609 64.592072 z" stroke-linecap="round"/>
</g>
		<g transform="matrix(1 0 0 1 -18.632 -10.1265)" id="Layer_1">
<path style="stroke: none; stroke-width: 1; stroke-dasharray: none; stroke-linecap: butt; stroke-dashoffset: 0; stroke-linejoin: miter; stroke-miterlimit: 4; is-custom-font: none; font-file-url: none; fill: rgb(54,189,216); fill-rule: nonzero; opacity: 1;" transform=" translate(-29.368, -37.8735)" d="M 29.648216 36.979874 C 29.734077 37.408279 29.561863 38.017014 29.09156 38.767036 C 28.992363 38.325615 29.191252 37.742905 29.648216 36.979874 z" stroke-linecap="round"/>
</g>
		<g transform="matrix(1 0 0 1 -19.5684 -8.5943)" id="Layer_1">
<path style="stroke: none; stroke-width: 1; stroke-dasharray: none; stroke-linecap: butt; stroke-dashoffset: 0; stroke-linejoin: miter; stroke-miterlimit: 4; is-custom-font: none; font-file-url: none; fill: rgb(54,189,216); fill-rule: nonzero; opacity: 1;" transform=" translate(-28.4316, -39.4057)" d="M 28.626846 38.933113 C 28.734825 39.13588 28.59866 39.444881 28.234745 39.878323 C 28.132233 39.681622 28.257467 39.360485 28.626846 38.933113 z" stroke-linecap="round"/>
</g>
		<g transform="matrix(1 0 0 1 6.068 9.6488)" id="Layer_1">
<path style="stroke: none; stroke-width: 1; stroke-dasharray: none; stroke-linecap: butt; stroke-dashoffset: 0; stroke-linejoin: miter; stroke-miterlimit: 4; is-custom-font: none; font-file-url: none; fill: rgb(239,248,249); fill-rule: nonzero; opacity: 1;" transform=" translate(-54.068, -57.6488)" d="M 66.274986 35.110985 C 68.420692 36.862312 70.230827 38.499554 72.311653 40.310661 C 73.208633 41.733429 73.834915 42.98233 74.900795 45.107876 C 72.450684 45.107876 70.633362 45.107876 67.97506 45.08551 C 65.074188 45.180344 63.014301 45.297543 60.784954 45.398094 C 60.615498 45.381451 60.417137 45.65707 60.417137 45.65707 C 60.417137 45.65707 60.587009 45.951797 60.457939 46.326702 C 60.354523 47.492401 60.380169 48.283192 60.405819 49.073986 C 60.311871 54.065258 60.217922 59.056526 60.20784 64.842026 C 62.865295 67.009026 65.438881 68.38179 68.012466 69.754547 C 69.077522 70.208977 70.132256 70.689606 71.209282 71.113617 C 78.518188 73.991005 78.628372 74.187233 77.244774 83.296967 C 74.250565 82.437355 71.123062 82.03318 68.47036 80.690758 C 58.08115 75.433197 47.873318 75.759903 37.546322 80.76194 C 35.676971 81.667389 33.522076 81.983307 30.203241 82.948051 C 34.79858 74.257317 32.703598 66.140221 32.090019 57.972908 C 30.543295 37.38448 47.259827 26.155045 66.274986 35.110985 z" stroke-linecap="round"/>
</g>
		<g transform="matrix(1 0 0 1 16.1938 16.2124)" id="Layer_1">
<path style="stroke: none; stroke-width: 1; stroke-dasharray: none; stroke-linecap: butt; stroke-dashoffset: 0; stroke-linejoin: miter; stroke-miterlimit: 4; is-custom-font: none; font-file-url: none; fill: rgb(10,164,243); fill-rule: nonzero; opacity: 1;" transform=" translate(-64.1938, -64.2125)" d="M 68.00631 69.334381 C 65.438881 68.38179 62.865295 67.009026 60.339355 65.287582 C 60.741238 63.242725 61.095474 61.546558 61.608406 59.09053 C 63.82703 60.223579 65.859894 61.261761 68.006653 62.639389 C 68.080421 64.957298 68.040291 66.935753 68.00631 69.334381 z" stroke-linecap="round"/>
</g>
		<g transform="matrix(1 0 0 1 16.1848 1.106)" id="Layer_1">
<path style="stroke: none; stroke-width: 1; stroke-dasharray: none; stroke-linecap: butt; stroke-dashoffset: 0; stroke-linejoin: miter; stroke-miterlimit: 4; is-custom-font: none; font-file-url: none; fill: rgb(8,66,96); fill-rule: nonzero; opacity: 1;" transform=" translate(-64.1848, -49.106)" d="M 60.954411 45.414742 C 63.014301 45.297543 65.074188 45.180344 67.573715 45.152695 C 67.997322 47.506153 67.981285 49.770058 67.906982 52.452885 C 65.139587 52.597748 61.239761 54.928066 60.610691 49.365139 C 60.380169 48.283192 60.354523 47.492401 60.566776 46.27932 C 60.80468 45.857033 60.954411 45.414738 60.954411 45.414742 z" stroke-linecap="round"/>
</g>
		<g transform="matrix(1 0 0 1 12.6392 -2.3465)" id="Layer_1">
<path style="stroke: none; stroke-width: 1; stroke-dasharray: none; stroke-linecap: butt; stroke-dashoffset: 0; stroke-linejoin: miter; stroke-miterlimit: 4; is-custom-font: none; font-file-url: none; fill: rgb(54,189,216); fill-rule: nonzero; opacity: 1;" transform=" translate(-60.6393, -45.6535)" d="M 60.784954 45.398094 C 60.954411 45.414738 60.80468 45.857033 60.695847 45.904415 C 60.587009 45.951797 60.417137 45.65707 60.417137 45.65707 C 60.417137 45.65707 60.615498 45.381451 60.784954 45.398094 z" stroke-linecap="round"/>
</g>
</g>
</g>
</svg>